<?xml version="1.0" encoding="UTF-8"?>
<svg xmlns="http://www.w3.org/2000/svg" viewBox="0 0 128 128" width="128" height="128">
  <rect width="128" height="128" fill="#FFFFFF"/>
  <!-- Minimal offset (almost merged) -->
  <g fill="#111111" transform="translate(5,-4)">
    <path d="M40.00,42.00 L48.00,16.00 L56.00,42.00 L64.00,42.00 L72.00,16.00 L80.00,42.00 C99.10,42.00 99.10,74.00 94.00,74.00 C94.00,106.00 60.00,106.00 60.00,106.00 C60.00,106.00 26.00,106.00 26.00,74.00 C20.90,74.00 20.90,42.00 40.00,42.00 Z"/>
  </g>
  <g fill="#111111">
    <path d="M40.00,42.00 L48.00,16.00 L56.00,42.00 L64.00,42.00 L72.00,16.00 L80.00,42.00 C99.10,42.00 99.10,74.00 94.00,74.00 C94.00,106.00 60.00,106.00 60.00,106.00 C60.00,106.00 26.00,106.00 26.00,74.00 C20.90,74.00 20.90,42.00 40.00,42.00 Z"/>
  </g>
</svg>
