<?xml version="1.0" encoding="UTF-8"?>
<svg xmlns="http://www.w3.org/2000/svg" viewBox="0 0 128 128" width="128" height="128">
  <rect width="128" height="128" fill="#FFFFFF"/>
  <!-- Rounder head -->
  <g fill="#111111" transform="translate(10,-8)">
    <path d="M40.00,38.00 L48.00,12.00 L56.00,38.00 L64.00,38.00 L72.00,12.00 L80.00,38.00 C105.00,38.00 105.00,74.00 96.00,74.00 C96.00,110.00 60.00,110.00 60.00,110.00 C60.00,110.00 24.00,110.00 24.00,74.00 C15.00,74.00 15.00,38.00 40.00,38.00 Z"/>
  </g>
  <g fill="#111111">
    <path d="M40.00,38.00 L48.00,12.00 L56.00,38.00 L64.00,38.00 L72.00,12.00 L80.00,38.00 C105.00,38.00 105.00,74.00 96.00,74.00 C96.00,110.00 60.00,110.00 60.00,110.00 C60.00,110.00 24.00,110.00 24.00,74.00 C15.00,74.00 15.00,38.00 40.00,38.00 Z"/>
  </g>
</svg>
