<?xml version="1.0" encoding="UTF-8"?>
<svg xmlns="http://www.w3.org/2000/svg" viewBox="0 0 128 128" width="128" height="128">
  <rect width="128" height="128" fill="#FFFFFF"/>
  <!-- Narrower upright head -->
  <g fill="#111111" transform="translate(9,-8)">
    <path d="M40.00,40.00 L48.00,12.00 L56.00,40.00 L64.00,40.00 L72.00,12.00 L80.00,40.00 C92.20,40.00 92.20,74.00 88.00,74.00 C88.00,108.00 60.00,108.00 60.00,108.00 C60.00,108.00 32.00,108.00 32.00,74.00 C27.80,74.00 27.80,40.00 40.00,40.00 Z"/>
  </g>
  <g fill="#111111">
    <path d="M40.00,40.00 L48.00,12.00 L56.00,40.00 L64.00,40.00 L72.00,12.00 L80.00,40.00 C92.20,40.00 92.20,74.00 88.00,74.00 C88.00,108.00 60.00,108.00 60.00,108.00 C60.00,108.00 32.00,108.00 32.00,74.00 C27.80,74.00 27.80,40.00 40.00,40.00 Z"/>
  </g>
</svg>
