<?xml version="1.0" encoding="UTF-8"?>
<svg xmlns="http://www.w3.org/2000/svg" viewBox="0 0 128 128" width="128" height="128">
  <rect width="128" height="128" fill="#FFFFFF"/>
  <!-- Wider cheeks / squat -->
  <g fill="#111111" transform="translate(11,-7)">
    <path d="M40.00,44.00 L48.00,20.00 L56.00,44.00 L64.00,44.00 L72.00,20.00 L80.00,44.00 C114.00,44.00 114.00,74.00 100.00,74.00 C100.00,104.00 60.00,104.00 60.00,104.00 C60.00,104.00 20.00,104.00 20.00,74.00 C6.00,74.00 6.00,44.00 40.00,44.00 Z"/>
  </g>
  <g fill="#111111">
    <path d="M40.00,44.00 L48.00,20.00 L56.00,44.00 L64.00,44.00 L72.00,20.00 L80.00,44.00 C114.00,44.00 114.00,74.00 100.00,74.00 C100.00,104.00 60.00,104.00 60.00,104.00 C60.00,104.00 20.00,104.00 20.00,74.00 C6.00,74.00 6.00,44.00 40.00,44.00 Z"/>
  </g>
</svg>
