<?xml version="1.0" encoding="UTF-8"?>
<svg xmlns="http://www.w3.org/2000/svg" viewBox="0 0 128 128" width="128" height="128">
  <rect width="128" height="128" fill="#FFFFFF"/>
  <!-- Taller sharper ears -->
  <g fill="#111111" transform="translate(10,-8)">
    <path d="M43.00,42.00 L50.00,8.00 L57.00,42.00 L63.00,42.00 L70.00,8.00 L77.00,42.00 C99.10,42.00 99.10,74.00 94.00,74.00 C94.00,106.00 60.00,106.00 60.00,106.00 C60.00,106.00 26.00,106.00 26.00,74.00 C20.90,74.00 20.90,42.00 43.00,42.00 Z"/>
  </g>
  <g fill="#111111">
    <path d="M43.00,42.00 L50.00,8.00 L57.00,42.00 L63.00,42.00 L70.00,8.00 L77.00,42.00 C99.10,42.00 99.10,74.00 94.00,74.00 C94.00,106.00 60.00,106.00 60.00,106.00 C60.00,106.00 26.00,106.00 26.00,74.00 C20.90,74.00 20.90,42.00 43.00,42.00 Z"/>
  </g>
</svg>
