<?xml version="1.0" encoding="UTF-8"?>
<svg xmlns="http://www.w3.org/2000/svg" viewBox="0 0 128 128" width="128" height="128">
  <rect width="128" height="128" fill="#FFFFFF"/>
  <!-- Compact for tiny sizes (bigger mass) -->
  <g fill="#111111" transform="translate(8,-6)">
    <path d="M41.50,36.00 L50.00,12.00 L58.50,36.00 L65.50,36.00 L74.00,12.00 L82.50,36.00 C107.60,36.00 107.60,72.00 100.00,72.00 C100.00,108.00 62.00,108.00 62.00,108.00 C62.00,108.00 24.00,108.00 24.00,72.00 C16.40,72.00 16.40,36.00 41.50,36.00 Z"/>
  </g>
  <g fill="#111111">
    <path d="M41.50,36.00 L50.00,12.00 L58.50,36.00 L65.50,36.00 L74.00,12.00 L82.50,36.00 C107.60,36.00 107.60,72.00 100.00,72.00 C100.00,108.00 62.00,108.00 62.00,108.00 C62.00,108.00 24.00,108.00 24.00,72.00 C16.40,72.00 16.40,36.00 41.50,36.00 Z"/>
  </g>
</svg>
