<?xml version="1.0" encoding="UTF-8"?>
<svg xmlns="http://www.w3.org/2000/svg" viewBox="0 0 128 128" width="128" height="128">
  <rect width="128" height="128" fill="#FFFFFF"/>
  <!-- Left cat -->
  <path fill="#111111" d="M8,56 L18,30 L30,52 L40,52 L50,30 L58,56
    C66,64 68,78 66,92 C64,106 50,112 34,112 C18,112 6,106 4,92
    C2,78 4,64 8,56 Z"/>
  <!-- Right cat overlapping -->
  <path fill="#111111" d="M48,56 L58,30 L70,52 L80,52 L90,30 L98,56
    C106,64 108,78 106,92 C104,106 90,112 74,112 C58,112 46,106 44,92
    C42,78 44,64 48,56 Z"/>

</svg>
