<?xml version="1.0" encoding="UTF-8"?>
<svg xmlns="http://www.w3.org/2000/svg" viewBox="0 0 128 128" width="128" height="128">
  <rect width="128" height="128" fill="#FFFFFF"/>
  <!-- Sitting cat body (side-ish geometric) -->
  <path fill="#111111" d="
    M38,40
    L48,16 L60,38
    C78,40 90,56 88,74
    C86,96 70,108 52,108
    C34,108 22,96 22,78
    C22,60 28,46 38,40 Z"/>
  <!-- Tail loop that echoes a second body mass -->
  <path fill="#111111" d="
    M88,70
    C110,70 118,88 112,102
    C106,116 88,118 78,108
    C92,112 104,100 100,88
    C96,76 90,74 88,70 Z"/>
  <!-- Second small head peek from loop (copy cue) -->
  <path fill="#111111" d="M96,78 L102,62 L108,78 C114,82 114,92 108,96 C102,100 96,96 96,90 Z"/>

</svg>
