<?xml version="1.0" encoding="UTF-8"?>
<svg xmlns="http://www.w3.org/2000/svg" viewBox="0 0 128 128" width="128" height="128">
  <rect width="128" height="128" fill="#FFFFFF"/>
  <path fill="#111111" d="
    M36,44
    L46,18 L58,42 L70,18 L80,44
    C98,48 108,66 104,86
    C100,108 80,118 58,116
    C40,114 28,100 28,82
    C28,64 30,50 36,44 Z"/>
  <!-- Figure-eight / looped tail suggesting twin form -->
  <path fill="#111111" fill-rule="evenodd" d="
    M100,70
    C118,70 124,86 116,98
    C108,110 92,110 86,98
    C80,86 88,74 100,70 Z
    M92,88
    C96,84 104,84 106,90
    C108,96 102,100 96,98
    C90,96 88,92 92,88 Z"/>

</svg>
