<svg xmlns="http://www.w3.org/2000/svg" viewBox="0 0 18 18" fill="none" aria-hidden="true">
  <!-- SF Symbol–style arrow.down.circle.fill: white disc, arrow knockout -->
  <path
    fill="#FFFFFF"
    fill-rule="evenodd"
    clip-rule="evenodd"
    d="M9 1.5C4.85786 1.5 1.5 4.85786 1.5 9C1.5 13.1421 4.85786 16.5 9 16.5C13.1421 16.5 16.5 13.1421 16.5 9C16.5 4.85786 13.1421 1.5 9 1.5ZM9 4.75C9.41421 4.75 9.75 5.08579 9.75 5.5V9.68934L11.2197 8.21967C11.5126 7.92678 11.9874 7.92678 12.2803 8.21967C12.5732 8.51256 12.5732 8.98744 12.2803 9.28033L9.53033 12.0303C9.23744 12.3232 8.76256 12.3232 8.46967 12.0303L5.71967 9.28033C5.42678 8.98744 5.42678 8.51256 5.71967 8.21967C6.01256 7.92678 6.48744 7.92678 6.78033 8.21967L8.25 9.68934V5.5C8.25 5.08579 8.58579 4.75 9 4.75Z"
  />
</svg>
