<?xml version="1.0" encoding="UTF-8"?>
<svg xmlns="http://www.w3.org/2000/svg" viewBox="0 0 128 128" width="128" height="128" role="img" aria-label="CopyCat D2 outline stroke">
  <!-- D2: Stroke-only outline. Uniform 6px stroke. Ears as peaks on front sheet. -->
  <rect width="128" height="128" fill="#FFFFFF"/>
  <g fill="none" stroke="#111111" stroke-width="6" stroke-linejoin="round" stroke-linecap="round">
    <!-- Back document -->
    <path d="
      M 44 30
      H 92
      A 8 8 0 0 1 100 38
      V 96
      A 8 8 0 0 1 92 104
      H 44
      A 8 8 0 0 1 36 96
      V 38
      A 8 8 0 0 1 44 30
      Z"/>
    <!-- Front document with ears -->
    <path d="
      M 28 44
      H 50
      L 57 32
      L 64 44
      L 71 32
      L 78 44
      H 84
      A 8 8 0 0 1 92 52
      V 108
      A 8 8 0 0 1 84 116
      H 36
      A 8 8 0 0 1 28 108
      V 52
      A 8 8 0 0 1 36 44
      H 28
      Z"/>
  </g>
</svg>
